<svg width="27" height="27" viewBox="0 0 27 27" fill="none" xmlns="http://www.w3.org/2000/svg">
<path d="M14.1109 20.6111L14.1109 19.8487L14.1092 19.8487L14.1109 20.6111ZM20.6115 15.8182L21.3316 16.0687L21.6838 15.0558H20.6115V15.8182ZM13.7551 15.8182H12.9927V16.5806H13.7551V15.8182ZM13.7551 11.1626V10.4002H12.9927V11.1626H13.7551ZM25.75 11.1626H26.5124V10.4002H25.75V11.1626ZM25.75 13.4955L24.9876 13.4955L24.9876 13.4958L25.75 13.4955ZM21.7551 4.56028L22.3047 5.08861L22.852 4.5192L22.2636 3.99232L21.7551 4.56028ZM18.0542 7.31022L17.5259 7.85985L18.6252 8.91652L19.1535 8.36688L18.0542 7.31022ZM19.1162 7.27315C18.1296 6.4685 16.964 5.91276 15.7177 5.65276L15.4063 7.1454C16.4134 7.3555 17.3553 7.80457 18.1525 8.45477L19.1162 7.27315ZM15.7177 5.65276C14.4714 5.39275 13.1809 5.4361 11.9549 5.77913L12.3657 7.24752C13.3564 6.97032 14.3993 6.9353 15.4063 7.1454L15.7177 5.65276ZM11.9549 5.77913C10.7288 6.12217 9.60318 6.75486 8.67278 7.62389L9.71358 8.73819C10.4654 8.03596 11.375 7.52471 12.3657 7.24752L11.9549 5.77913ZM8.67278 7.62389C7.74238 8.49292 7.03447 9.57284 6.60869 10.7727L8.04567 11.2826C8.38973 10.3131 8.96176 9.44042 9.71358 8.73819L8.67278 7.62389ZM6.60869 10.7727C6.18292 11.9725 6.05175 13.2571 6.22624 14.5182L7.73663 14.3092C7.59563 13.2901 7.70162 12.2521 8.04567 11.2826L6.60869 10.7727ZM6.22624 14.5182C6.40073 15.7793 6.87576 16.98 7.61132 18.0192L8.85586 17.1382C8.26148 16.2985 7.87762 15.3283 7.73663 14.3092L6.22624 14.5182ZM7.61132 18.0192C8.34688 19.0583 9.32141 19.9054 10.4528 20.4892L11.152 19.1341C10.2377 18.6624 9.45023 17.9779 8.85586 17.1382L7.61132 18.0192ZM10.4528 20.4892C11.5842 21.0729 12.8394 21.3762 14.1125 21.3735L14.1092 19.8487C13.0804 19.8509 12.0662 19.6059 11.152 19.1341L10.4528 20.4892ZM14.1109 21.3735C17.6122 21.3735 20.2632 19.1403 21.3316 16.0687L19.8914 15.5678C19.0081 18.1073 16.8814 19.8487 14.1109 19.8487V21.3735ZM20.6115 15.0558H13.7551V16.5806H20.6115V15.0558ZM14.5175 15.8182V11.1626H12.9927V15.8182H14.5175ZM13.7551 11.9249H25.75V10.4002H13.7551V11.9249ZM24.9876 11.1626C24.9876 11.1648 24.9876 11.167 24.9876 11.1692C24.9876 11.1714 24.9876 11.1736 24.9876 11.1758C24.9876 11.1779 24.9876 11.1801 24.9876 11.1823C24.9876 11.1845 24.9876 11.1867 24.9876 11.1889C24.9876 11.1911 24.9876 11.1932 24.9876 11.1954C24.9876 11.1976 24.9876 11.1998 24.9876 11.2019C24.9876 11.2041 24.9876 11.2063 24.9876 11.2084C24.9876 11.2106 24.9876 11.2128 24.9876 11.2149C24.9876 11.2171 24.9876 11.2192 24.9876 11.2214C24.9876 11.2235 24.9876 11.2257 24.9876 11.2278C24.9876 11.23 24.9876 11.2321 24.9876 11.2343C24.9876 11.2364 24.9876 11.2386 24.9876 11.2407C24.9876 11.2428 24.9876 11.245 24.9876 11.2471C24.9876 11.2492 24.9876 11.2514 24.9876 11.2535C24.9876 11.2556 24.9876 11.2578 24.9876 11.2599C24.9876 11.262 24.9876 11.2641 24.9876 11.2662C24.9876 11.2684 24.9876 11.2705 24.9876 11.2726C24.9876 11.2747 24.9876 11.2768 24.9876 11.2789C24.9876 11.281 24.9876 11.2831 24.9876 11.2852C24.9876 11.2873 24.9876 11.2894 24.9876 11.2915C24.9876 11.2936 24.9876 11.2957 24.9876 11.2978C24.9876 11.2999 24.9876 11.302 24.9876 11.304C24.9876 11.3061 24.9876 11.3082 24.9876 11.3103C24.9876 11.3124 24.9876 11.3145 24.9876 11.3165C24.9876 11.3186 24.9876 11.3207 24.9876 11.3227C24.9876 11.3248 24.9876 11.3269 24.9876 11.3289C24.9876 11.331 24.9876 11.3331 24.9876 11.3351C24.9876 11.3372 24.9876 11.3392 24.9876 11.3413C24.9876 11.3434 24.9876 11.3454 24.9876 11.3475C24.9876 11.3495 24.9876 11.3515 24.9876 11.3536C24.9876 11.3556 24.9876 11.3577 24.9876 11.3597C24.9876 11.3618 24.9876 11.3638 24.9876 11.3658C24.9876 11.3679 24.9876 11.3699 24.9876 11.3719C24.9876 11.3739 24.9876 11.376 24.9876 11.378C24.9876 11.38 24.9876 11.382 24.9876 11.3841C24.9876 11.3861 24.9876 11.3881 24.9876 11.3901C24.9876 11.3921 24.9876 11.3941 24.9876 11.3961C24.9876 11.3982 24.9876 11.4002 24.9876 11.4022C24.9876 11.4042 24.9876 11.4062 24.9876 11.4082C24.9876 11.4102 24.9876 11.4122 24.9876 11.4142C24.9876 11.4162 24.9876 11.4181 24.9876 11.4201C24.9876 11.4221 24.9876 11.4241 24.9876 11.4261C24.9876 11.4281 24.9876 11.4301 24.9876 11.432C24.9876 11.434 24.9876 11.436 24.9876 11.438C24.9876 11.4399 24.9876 11.4419 24.9876 11.4439C24.9876 11.4459 24.9876 11.4478 24.9876 11.4498C24.9876 11.4518 24.9876 11.4537 24.9876 11.4557C24.9876 11.4576 24.9876 11.4596 24.9876 11.4616C24.9876 11.4635 24.9876 11.4655 24.9876 11.4674C24.9876 11.4694 24.9876 11.4713 24.9876 11.4733C24.9876 11.4752 24.9876 11.4771 24.9876 11.4791C24.9876 11.481 24.9876 11.483 24.9876 11.4849C24.9876 11.4868 24.9876 11.4888 24.9876 11.4907C24.9876 11.4926 24.9876 11.4946 24.9876 11.4965C24.9876 11.4984 24.9876 11.5003 24.9876 11.5023C24.9876 11.5042 24.9876 11.5061 24.9876 11.508C24.9876 11.5099 24.9876 11.5119 24.9876 11.5138C24.9876 11.5157 24.9876 11.5176 24.9876 11.5195C24.9876 11.5214 24.9876 11.5233 24.9876 11.5252C24.9876 11.5271 24.9876 11.529 24.9876 11.5309C24.9876 11.5328 24.9876 11.5347 24.9876 11.5366C24.9876 11.5385 24.9876 11.5404 24.9876 11.5423C24.9876 11.5442 24.9876 11.5461 24.9876 11.548C24.9876 11.5498 24.9876 11.5517 24.9876 11.5536C24.9876 11.5555 24.9876 11.5574 24.9876 11.5593C24.9876 11.5611 24.9876 11.563 24.9876 11.5649C24.9876 11.5667 24.9876 11.5686 24.9876 11.5705C24.9876 11.5724 24.9876 11.5742 24.9876 11.5761C24.9876 11.5779 24.9876 11.5798 24.9876 11.5817C24.9876 11.5835 24.9876 11.5854 24.9876 11.5872C24.9876 11.5891 24.9876 11.5909 24.9876 11.5928C24.9876 11.5946 24.9876 11.5965 24.9876 11.5983C24.9876 11.6002 24.9876 11.602 24.9876 11.6039C24.9876 11.6057 24.9876 11.6075 24.9876 11.6094C24.9876 11.6112 24.9876 11.6131 24.9876 11.6149C24.9876 11.6167 24.9876 11.6186 24.9876 11.6204C24.9876 11.6222 24.9876 11.624 24.9876 11.6259C24.9876 11.6277 24.9876 11.6295 24.9876 11.6313C24.9876 11.6332 24.9876 11.635 24.9876 11.6368C24.9876 11.6386 24.9876 11.6404 24.9876 11.6422C24.9876 11.644 24.9876 11.6458 24.9876 11.6477C24.9876 11.6495 24.9876 11.6513 24.9876 11.6531C24.9876 11.6549 24.9876 11.6567 24.9876 11.6585C24.9876 11.6603 24.9876 11.6621 24.9876 11.6639C24.9876 11.6657 24.9876 11.6675 24.9876 11.6692C24.9876 11.671 24.9876 11.6728 24.9876 11.6746C24.9876 11.6764 24.9876 11.6782 24.9876 11.68C24.9876 11.6817 24.9876 11.6835 24.9876 11.6853C24.9876 11.6871 24.9876 11.6889 24.9876 11.6906C24.9876 11.6924 24.9876 11.6942 24.9876 11.6959C24.9876 11.6977 24.9876 11.6995 24.9876 11.7013C24.9876 11.703 24.9876 11.7048 24.9876 11.7065C24.9876 11.7083 24.9876 11.7101 24.9876 11.7118C24.9876 11.7136 24.9876 11.7153 24.9876 11.7171C24.9876 11.7188 24.9876 11.7206 24.9876 11.7224C24.9876 11.7241 24.9876 11.7259 24.9876 11.7276C24.9876 11.7293 24.9876 11.7311 24.9876 11.7328C24.9876 11.7346 24.9876 11.7363 24.9876 11.7381C24.9876 11.7398 24.9876 11.7415 24.9876 11.7433C24.9876 11.745 24.9876 11.7467 24.9876 11.7485C24.9876 11.7502 24.9876 11.7519 24.9876 11.7536C24.9876 11.7554 24.9876 11.7571 24.9876 11.7588C24.9876 11.7605 24.9876 11.7623 24.9876 11.764C24.9876 11.7657 24.9876 11.7674 24.9876 11.7691C24.9876 11.7708 24.9876 11.7726 24.9876 11.7743C24.9876 11.776 24.9876 11.7777 24.9876 11.7794C24.9876 11.7811 24.9876 11.7828 24.9876 11.7845C24.9876 11.7862 24.9876 11.7879 24.9876 11.7896C24.9876 11.7913 24.9876 11.793 24.9876 11.7947C24.9876 11.7964 24.9876 11.7981 24.9876 11.7998C24.9876 11.8015 24.9876 11.8032 24.9876 11.8049C24.9876 11.8066 24.9876 11.8082 24.9876 11.8099C24.9876 11.8116 24.9876 11.8133 24.9876 11.815C24.9876 11.8167 24.9876 11.8183 24.9876 11.82C24.9876 11.8217 24.9876 11.8234 24.9876 11.8251C24.9876 11.8267 24.9876 11.8284 24.9876 11.8301C24.9876 11.8317 24.9876 11.8334 24.9876 11.8351C24.9876 11.8367 24.9876 11.8384 24.9876 11.8401C24.9876 11.8417 24.9876 11.8434 24.9876 11.8451C24.9876 11.8467 24.9876 11.8484 24.9876 11.85C24.9876 11.8517 24.9876 11.8533 24.9876 11.855C24.9876 11.8566 24.9876 11.8583 24.9876 11.86C24.9876 11.8616 24.9876 11.8632 24.9876 11.8649C24.9876 11.8665 24.9876 11.8682 24.9876 11.8698C24.9876 11.8715 24.9876 11.8731 24.9876 11.8747C24.9876 11.8764 24.9876 11.878 24.9876 11.8797C24.9876 11.8813 24.9876 11.8829 24.9876 11.8846C24.9876 11.8862 24.9876 11.8878 24.9876 11.8895C24.9876 11.8911 24.9876 11.8927 24.9876 11.8943C24.9876 11.896 24.9876 11.8976 24.9876 11.8992C24.9876 11.9008 24.9876 11.9024 24.9876 11.9041C24.9876 11.9057 24.9876 11.9073 24.9876 11.9089C24.9876 11.9105 24.9876 11.9121 24.9876 11.9138C24.9876 11.9154 24.9876 11.917 24.9876 11.9186C24.9876 11.9202 24.9876 11.9218 24.9876 11.9234C24.9876 11.925 24.9876 11.9266 24.9876 11.9282C24.9876 11.9298 24.9876 11.9314 24.9876 11.933C24.9876 11.9346 24.9876 11.9362 24.9876 11.9378C24.9876 11.9394 24.9876 11.941 24.9876 11.9426C24.9876 11.9442 24.9876 11.9458 24.9876 11.9474C24.9876 11.949 24.9876 11.9505 24.9876 11.9521C24.9876 11.9537 24.9876 11.9553 24.9876 11.9569C24.9876 11.9585 24.9876 11.96 24.9876 11.9616C24.9876 11.9632 24.9876 11.9648 24.9876 11.9664C24.9876 11.9679 24.9876 11.9695 24.9876 11.9711C24.9876 11.9727 24.9876 11.9742 24.9876 11.9758C24.9876 11.9774 24.9876 11.9789 24.9876 11.9805C24.9876 11.9821 24.9876 11.9836 24.9876 11.9852C24.9876 11.9868 24.9876 11.9883 24.9876 11.9899C24.9876 11.9914 24.9876 11.993 24.9876 11.9946C24.9876 11.9961 24.9876 11.9977 24.9876 11.9992C24.9876 12.0008 24.9876 12.0023 24.9876 12.0039C24.9876 12.0054 24.9876 12.007 24.9876 12.0085C24.9876 12.0101 24.9876 12.0116 24.9876 12.0132C24.9876 12.0147 24.9876 12.0163 24.9876 12.0178C24.9876 12.0194 24.9876 12.0209 24.9876 12.0224C24.9876 12.024 24.9876 12.0255 24.9876 12.0271C24.9876 12.0286 24.9876 12.0301 24.9876 12.0317C24.9876 12.0332 24.9876 12.0347 24.9876 12.0363C24.9876 12.0378 24.9876 12.0393 24.9876 12.0409C24.9876 12.0424 24.9876 12.0439 24.9876 12.0454C24.9876 12.047 24.9876 12.0485 24.9876 12.05C24.9876 12.0515 24.9876 12.0531 24.9876 12.0546C24.9876 12.0561 24.9876 12.0576 24.9876 12.0591C24.9876 12.0606 24.9876 12.0622 24.9876 12.0637C24.9876 12.0652 24.9876 12.0667 24.9876 12.0682C24.9876 12.0697 24.9876 12.0712 24.9876 12.0727C24.9876 12.0743 24.9876 12.0758 24.9876 12.0773C24.9876 12.0788 24.9876 12.0803 24.9876 12.0818C24.9876 12.0833 24.9876 12.0848 24.9876 12.0863C24.9876 12.0878 24.9876 12.0893 24.9876 12.0908C24.9876 12.0923 24.9876 12.0938 24.9876 12.0953C24.9876 12.0968 24.9876 12.0983 24.9876 12.0998C24.9876 12.1013 24.9876 12.1027 24.9876 12.1042C24.9876 12.1057 24.9876 12.1072 24.9876 12.1087C24.9876 12.1102 24.9876 12.1117 24.9876 12.1132C24.9876 12.1146 24.9876 12.1161 24.9876 12.1176C24.9876 12.1191 24.9876 12.1206 24.9876 12.1221C24.9876 12.1235 24.9876 12.125 24.9876 12.1265C24.9876 12.128 24.9876 12.1294 24.9876 12.1309C24.9876 12.1324 24.9876 12.1339 24.9876 12.1353C24.9876 12.1368 24.9876 12.1383 24.9876 12.1397C24.9876 12.1412 24.9876 12.1427 24.9876 12.1442C24.9876 12.1456 24.9876 12.1471 24.9876 12.1486C24.9876 12.15 24.9876 12.1515 24.9876 12.1529C24.9876 12.1544 24.9876 12.1559 24.9876 12.1573C24.9876 12.1588 24.9876 12.1602 24.9876 12.1617C24.9876 12.1632 24.9876 12.1646 24.9876 12.1661C24.9876 12.1675 24.9876 12.169 24.9876 12.1704C24.9876 12.1719 24.9876 12.1733 24.9876 12.1748C24.9876 12.1762 24.9876 12.1777 24.9876 12.1791C24.9876 12.1806 24.9876 12.182 24.9876 12.1835C24.9876 12.1849 24.9876 12.1864 24.9876 12.1878C24.9876 12.1893 24.9876 12.1907 24.9876 12.1921C24.9876 12.1936 24.9876 12.195 24.9876 12.1965C24.9876 12.1979 24.9876 12.1993 24.9876 12.2008C24.9876 12.2022 24.9876 12.2036 24.9876 12.2051C24.9876 12.2065 24.9876 12.2079 24.9876 12.2094C24.9876 12.2108 24.9876 12.2122 24.9876 12.2137C24.9876 12.2151 24.9876 12.2165 24.9876 12.218C24.9876 12.2194 24.9876 12.2208 24.9876 12.2222C24.9876 12.2237 24.9876 12.2251 24.9876 12.2265C24.9876 12.2279 24.9876 12.2294 24.9876 12.2308C24.9876 12.2322 24.9876 12.2336 24.9876 12.235C24.9876 12.2365 24.9876 12.2379 24.9876 12.2393C24.9876 12.2407 24.9876 12.2421 24.9876 12.2435C24.9876 12.245 24.9876 12.2464 24.9876 12.2478C24.9876 12.2492 24.9876 12.2506 24.9876 12.252C24.9876 12.2534 24.9876 12.2548 24.9876 12.2563C24.9876 12.2577 24.9876 12.2591 24.9876 12.2605C24.9876 12.2619 24.9876 12.2633 24.9876 12.2647C24.9876 12.2661 24.9876 12.2675 24.9876 12.2689C24.9876 12.2703 24.9876 12.2717 24.9876 12.2731C24.9876 12.2745 24.9876 12.2759 24.9876 12.2773C24.9876 12.2787 24.9876 12.2801 24.9876 12.2815C24.9876 12.2829 24.9876 12.2843 24.9876 12.2857C24.9876 12.2871 24.9876 12.2885 24.9876 12.2899C24.9876 12.2913 24.9876 12.2927 24.9876 12.2941C24.9876 12.2954 24.9876 12.2968 24.9876 12.2982C24.9876 12.2996 24.9876 12.301 24.9876 12.3024C24.9876 12.3038 24.9876 12.3052 24.9876 12.3065C24.9876 12.3079 24.9876 12.3093 24.9876 12.3107C24.9876 12.3121 24.9876 12.3135 24.9876 12.3149C24.9876 12.3162 24.9876 12.3176 24.9876 12.319C24.9876 12.3204 24.9876 12.3218 24.9876 12.3231C24.9876 12.3245 24.9876 12.3259 24.9876 12.3273C24.9876 12.3286 24.9876 12.33 24.9876 12.3314C24.9876 12.3328 24.9876 12.3341 24.9876 12.3355C24.9876 12.3369 24.9876 12.3383 24.9876 12.3396C24.9876 12.341 24.9876 12.3424 24.9876 12.3438C24.9876 12.3451 24.9876 12.3465 24.9876 12.3479C24.9876 12.3492 24.9876 12.3506 24.9876 12.352C24.9876 12.3533 24.9876 12.3547 24.9876 12.3561C24.9876 12.3574 24.9876 12.3588 24.9876 12.3602C24.9876 12.3615 24.9876 12.3629 24.9876 12.3642C24.9876 12.3656 24.9876 12.367 24.9876 12.3683C24.9876 12.3697 24.9876 12.371 24.9876 12.3724C24.9876 12.3738 24.9876 12.3751 24.9876 12.3765C24.9876 12.3778 24.9876 12.3792 24.9876 12.3806C24.9876 12.3819 24.9876 12.3833 24.9876 12.3846C24.9876 12.386 24.9876 12.3873 24.9876 12.3887C24.9876 12.39 24.9876 12.3914 24.9876 12.3927C24.9876 12.3941 24.9876 12.3954 24.9876 12.3968C24.9876 12.3981 24.9876 12.3995 24.9876 12.4008C24.9876 12.4022 24.9876 12.4035 24.9876 12.4049C24.9876 12.4062 24.9876 12.4076 24.9876 12.4089C24.9876 12.4103 24.9876 12.4116 24.9876 12.413C24.9876 12.4143 24.9876 12.4156 24.9876 12.417C24.9876 12.4183 24.9876 12.4197 24.9876 12.421C24.9876 12.4224 24.9876 12.4237 24.9876 12.425C24.9876 12.4264 24.9876 12.4277 24.9876 12.4291C24.9876 12.4304 24.9876 12.4317 24.9876 12.4331C24.9876 12.4344 24.9876 12.4357 24.9876 12.4371C24.9876 12.4384 24.9876 12.4398 24.9876 12.4411C24.9876 12.4424 24.9876 12.4438 24.9876 12.4451C24.9876 12.4464 24.9876 12.4478 24.9876 12.4491C24.9876 12.4504 24.9876 12.4518 24.9876 12.4531C24.9876 12.4544 24.9876 12.4558 24.9876 12.4571C24.9876 12.4584 24.9876 12.4597 24.9876 12.4611C24.9876 12.4624 24.9876 12.4637 24.9876 12.4651C24.9876 12.4664 24.9876 12.4677 24.9876 12.469C24.9876 12.4704 24.9876 12.4717 24.9876 12.473C24.9876 12.4743 24.9876 12.4757 24.9876 12.477C24.9876 12.4783 24.9876 12.4796 24.9876 12.481C24.9876 12.4823 24.9876 12.4836 24.9876 12.4849C24.9876 12.4863 24.9876 12.4876 24.9876 12.4889C24.9876 12.4902 24.9876 12.4915 24.9876 12.4929C24.9876 12.4942 24.9876 12.4955 24.9876 12.4968C24.9876 12.4981 24.9876 12.4995 24.9876 12.5008C24.9876 12.5021 24.9876 12.5034 24.9876 12.5047C24.9876 12.506 24.9876 12.5074 24.9876 12.5087C24.9876 12.51 24.9876 12.5113 24.9876 12.5126C24.9876 12.5139 24.9876 12.5153 24.9876 12.5166C24.9876 12.5179 24.9876 12.5192 24.9876 12.5205C24.9876 12.5218 24.9876 12.5231 24.9876 12.5245C24.9876 12.5258 24.9876 12.5271 24.9876 12.5284C24.9876 12.5297 24.9876 12.531 24.9876 12.5323C24.9876 12.5336 24.9876 12.5349 24.9876 12.5363C24.9876 12.5376 24.9876 12.5389 24.9876 12.5402C24.9876 12.5415 24.9876 12.5428 24.9876 12.5441C24.9876 12.5454 24.9876 12.5467 24.9876 12.548C24.9876 12.5493 24.9876 12.5506 24.9876 12.552C24.9876 12.5533 24.9876 12.5546 24.9876 12.5559C24.9876 12.5572 24.9876 12.5585 24.9876 12.5598C24.9876 12.5611 24.9876 12.5624 24.9876 12.5637C24.9876 12.565 24.9876 12.5663 24.9876 12.5676C24.9876 12.5689 24.9876 12.5702 24.9876 12.5715C24.9876 12.5728 24.9876 12.5741 24.9876 12.5754C24.9876 12.5767 24.9876 12.578 24.9876 12.5793C24.9876 12.5806 24.9876 12.5819 24.9876 12.5832C24.9876 12.5845 24.9876 12.5858 24.9876 12.5871C24.9876 12.5884 24.9876 12.5897 24.9876 12.591C24.9876 12.5923 24.9876 12.5936 24.9876 12.5949C24.9876 12.5962 24.9876 12.5975 24.9876 12.5988C24.9876 12.6001 24.9876 12.6014 24.9876 12.6027C24.9876 12.604 24.9876 12.6053 24.9876 12.6066C24.9876 12.6079 24.9876 12.6092 24.9876 12.6105C24.9876 12.6118 24.9876 12.6131 24.9876 12.6144C24.9876 12.6157 24.9876 12.617 24.9876 12.6183C24.9876 12.6196 24.9876 12.6209 24.9876 12.6222C24.9876 12.6235 24.9876 12.6248 24.9876 12.6261C24.9876 12.6274 24.9876 12.6287 24.9876 12.63C24.9876 12.6313 24.9876 12.6325 24.9876 12.6338C24.9876 12.6351 24.9876 12.6364 24.9876 12.6377C24.9876 12.639 24.9876 12.6403 24.9876 12.6416C24.9876 12.6429 24.9876 12.6442 24.9876 12.6455C24.9876 12.6468 24.9876 12.6481 24.9876 12.6494C24.9876 12.6507 24.9876 12.6519 24.9876 12.6532C24.9876 12.6545 24.9876 12.6558 24.9876 12.6571C24.9876 12.6584 24.9876 12.6597 24.9876 12.661C24.9876 12.6623 24.9876 12.6636 24.9876 12.6649C24.9876 12.6662 24.9876 12.6674 24.9876 12.6687C24.9876 12.67 24.9876 12.6713 24.9876 12.6726C24.9876 12.6739 24.9876 12.6752 24.9876 12.6765C24.9876 12.6778 24.9876 12.6791 24.9876 12.6804C24.9876 12.6816 24.9876 12.6829 24.9876 12.6842C24.9876 12.6855 24.9876 12.6868 24.9876 12.6881C24.9876 12.6894 24.9876 12.6907 24.9876 12.692C24.9876 12.6933 24.9876 12.6945 24.9876 12.6958C24.9876 12.6971 24.9876 12.6984 24.9876 12.6997C24.9876 12.701 24.9876 12.7023 24.9876 12.7036C24.9876 12.7049 24.9876 12.7061 24.9876 12.7074C24.9876 12.7087 24.9876 12.71 24.9876 12.7113C24.9876 12.7126 24.9876 12.7139 24.9876 12.7152C24.9876 12.7165 24.9876 12.7177 24.9876 12.719C24.9876 12.7203 24.9876 12.7216 24.9876 12.7229C24.9876 12.7242 24.9876 12.7255 24.9876 12.7268C24.9876 12.7281 24.9876 12.7293 24.9876 12.7306C24.9876 12.7319 24.9876 12.7332 24.9876 12.7345C24.9876 12.7358 24.9876 12.7371 24.9876 12.7384C24.9876 12.7397 24.9876 12.7409 24.9876 12.7422C24.9876 12.7435 24.9876 12.7448 24.9876 12.7461C24.9876 12.7474 24.9876 12.7487 24.9876 12.75C24.9876 12.7513 24.9876 12.7525 24.9876 12.7538C24.9876 12.7551 24.9876 12.7564 24.9876 12.7577C24.9876 12.759 24.9876 12.7603 24.9876 12.7616C24.9876 12.7629 24.9876 12.7642 24.9876 12.7654C24.9876 12.7667 24.9876 12.768 24.9876 12.7693C24.9876 12.7706 24.9876 12.7719 24.9876 12.7732C24.9876 12.7745 24.9876 12.7758 24.9876 12.7771C24.9876 12.7783 24.9876 12.7796 24.9876 12.7809C24.9876 12.7822 24.9876 12.7835 24.9876 12.7848C24.9876 12.7861 24.9876 12.7874 24.9876 12.7887C24.9876 12.79 24.9876 12.7912 24.9876 12.7925C24.9876 12.7938 24.9876 12.7951 24.9876 12.7964C24.9876 12.7977 24.9876 12.799 24.9876 12.8003C24.9876 12.8016 24.9876 12.8029 24.9876 12.8042C24.9876 12.8055 24.9876 12.8067 24.9876 12.808C24.9876 12.8093 24.9876 12.8106 24.9876 12.8119C24.9876 12.8132 24.9876 12.8145 24.9876 12.8158C24.9876 12.8171 24.9876 12.8184 24.9876 12.8197C24.9876 12.821 24.9876 12.8223 24.9876 12.8236C24.9876 12.8249 24.9876 12.8261 24.9876 12.8274C24.9876 12.8287 24.9876 12.83 24.9876 12.8313C24.9876 12.8326 24.9876 12.8339 24.9876 12.8352C24.9876 12.8365 24.9876 12.8378 24.9876 12.8391C24.9876 12.8404 24.9876 12.8417 24.9876 12.843C24.9876 12.8443 24.9876 12.8456 24.9876 12.8469C24.9876 12.8482 24.9876 12.8495 24.9876 12.8508C24.9876 12.8521 24.9876 12.8534 24.9876 12.8547C24.9876 12.856 24.9876 12.8573 24.9876 12.8586C24.9876 12.8599 24.9876 12.8612 24.9876 12.8624C24.9876 12.8637 24.9876 12.865 24.9876 12.8663C24.9876 12.8676 24.9876 12.8689 24.9876 12.8702C24.9876 12.8715 24.9876 12.8728 24.9876 12.8741C24.9876 12.8754 24.9876 12.8767 24.9876 12.8781C24.9876 12.8794 24.9876 12.8807 24.9876 12.882C24.9876 12.8833 24.9876 12.8846 24.9876 12.8859C24.9876 12.8872 24.9876 12.8885 24.9876 12.8898C24.9876 12.8911 24.9876 12.8924 24.9876 12.8937C24.9876 12.895 24.9876 12.8963 24.9876 12.8976C24.9876 12.8989 24.9876 12.9002 24.9876 12.9015C24.9876 12.9028 24.9876 12.9041 24.9876 12.9054C24.9876 12.9067 24.9876 12.908 24.9876 12.9094C24.9876 12.9107 24.9876 12.912 24.9876 12.9133C24.9876 12.9146 24.9876 12.9159 24.9876 12.9172C24.9876 12.9185 24.9876 12.9198 24.9876 12.9211C24.9876 12.9224 24.9876 12.9237 24.9876 12.9251C24.9876 12.9264 24.9876 12.9277 24.9876 12.929C24.9876 12.9303 24.9876 12.9316 24.9876 12.9329C24.9876 12.9342 24.9876 12.9356 24.9876 12.9369C24.9876 12.9382 24.9876 12.9395 24.9876 12.9408C24.9876 12.9421 24.9876 12.9434 24.9876 12.9447C24.9876 12.9461 24.9876 12.9474 24.9876 12.9487C24.9876 12.95 24.9876 12.9513 24.9876 12.9526C24.9876 12.954 24.9876 12.9553 24.9876 12.9566C24.9876 12.9579 24.9876 12.9592 24.9876 12.9606C24.9876 12.9619 24.9876 12.9632 24.9876 12.9645C24.9876 12.9658 24.9876 12.9672 24.9876 12.9685C24.9876 12.9698 24.9876 12.9711 24.9876 12.9724C24.9876 12.9738 24.9876 12.9751 24.9876 12.9764C24.9876 12.9777 24.9876 12.979 24.9876 12.9804C24.9876 12.9817 24.9876 12.983 24.9876 12.9843C24.9876 12.9857 24.9876 12.987 24.9876 12.9883C24.9876 12.9897 24.9876 12.991 24.9876 12.9923C24.9876 12.9936 24.9876 12.995 24.9876 12.9963C24.9876 12.9976 24.9876 12.9989 24.9876 13.0003C24.9876 13.0016 24.9876 13.0029 24.9876 13.0043C24.9876 13.0056 24.9876 13.0069 24.9876 13.0083C24.9876 13.0096 24.9876 13.0109 24.9876 13.0123C24.9876 13.0136 24.9876 13.0149 24.9876 13.0163C24.9876 13.0176 24.9876 13.0189 24.9876 13.0203C24.9876 13.0216 24.9876 13.0229 24.9876 13.0243C24.9876 13.0256 24.9876 13.027 24.9876 13.0283C24.9876 13.0296 24.9876 13.031 24.9876 13.0323C24.9876 13.0337 24.9876 13.035 24.9876 13.0363C24.9876 13.0377 24.9876 13.039 24.9876 13.0404C24.9876 13.0417 24.9876 13.043 24.9876 13.0444C24.9876 13.0457 24.9876 13.0471 24.9876 13.0484C24.9876 13.0498 24.9876 13.0511 24.9876 13.0525C24.9876 13.0538 24.9876 13.0552 24.9876 13.0565C24.9876 13.0579 24.9876 13.0592 24.9876 13.0605C24.9876 13.0619 24.9876 13.0632 24.9876 13.0646C24.9876 13.066 24.9876 13.0673 24.9876 13.0687C24.9876 13.07 24.9876 13.0714 24.9876 13.0727C24.9876 13.0741 24.9876 13.0754 24.9876 13.0768C24.9876 13.0781 24.9876 13.0795 24.9876 13.0808C24.9876 13.0822 24.9876 13.0836 24.9876 13.0849C24.9876 13.0863 24.9876 13.0876 24.9876 13.089C24.9876 13.0904 24.9876 13.0917 24.9876 13.0931C24.9876 13.0944 24.9876 13.0958 24.9876 13.0972C24.9876 13.0985 24.9876 13.0999 24.9876 13.1013C24.9876 13.1026 24.9876 13.104 24.9876 13.1054C24.9876 13.1067 24.9876 13.1081 24.9876 13.1095C24.9876 13.1108 24.9876 13.1122 24.9876 13.1136C24.9876 13.1149 24.9876 13.1163 24.9876 13.1177C24.9876 13.119 24.9876 13.1204 24.9876 13.1218C24.9876 13.1232 24.9876 13.1245 24.9876 13.1259C24.9876 13.1273 24.9876 13.1287 24.9876 13.13C24.9876 13.1314 24.9876 13.1328 24.9876 13.1342C24.9876 13.1355 24.9876 13.1369 24.9876 13.1383C24.9876 13.1397 24.9876 13.1411 24.9876 13.1424C24.9876 13.1438 24.9876 13.1452 24.9876 13.1466C24.9876 13.148 24.9876 13.1494 24.9876 13.1508C24.9876 13.1521 24.9876 13.1535 24.9876 13.1549C24.9876 13.1563 24.9876 13.1577 24.9876 13.1591C24.9876 13.1605 24.9876 13.1619 24.9876 13.1632C24.9876 13.1646 24.9876 13.166 24.9876 13.1674C24.9876 13.1688 24.9876 13.1702 24.9876 13.1716C24.9876 13.173 24.9876 13.1744 24.9876 13.1758C24.9876 13.1772 24.9876 13.1786 24.9876 13.18C24.9876 13.1814 24.9876 13.1828 24.9876 13.1842C24.9876 13.1856 24.9876 13.187 24.9876 13.1884C24.9876 13.1898 24.9876 13.1912 24.9876 13.1926C24.9876 13.194 24.9876 13.1954 24.9876 13.1968C24.9876 13.1982 24.9876 13.1996 24.9876 13.201C24.9876 13.2024 24.9876 13.2038 24.9876 13.2053C24.9876 13.2067 24.9876 13.2081 24.9876 13.2095C24.9876 13.2109 24.9876 13.2123 24.9876 13.2137C24.9876 13.2151 24.9876 13.2166 24.9876 13.218C24.9876 13.2194 24.9876 13.2208 24.9876 13.2222C24.9876 13.2236 24.9876 13.2251 24.9876 13.2265C24.9876 13.2279 24.9876 13.2293 24.9876 13.2307C24.9876 13.2322 24.9876 13.2336 24.9876 13.235C24.9876 13.2364 24.9876 13.2379 24.9876 13.2393C24.9876 13.2407 24.9876 13.2422 24.9876 13.2436C24.9876 13.245 24.9876 13.2464 24.9876 13.2479C24.9876 13.2493 24.9876 13.2507 24.9876 13.2522C24.9876 13.2536 24.9876 13.255 24.9876 13.2565C24.9876 13.2579 24.9876 13.2593 24.9876 13.2608C24.9876 13.2622 24.9876 13.2637 24.9876 13.2651C24.9876 13.2665 24.9876 13.268 24.9876 13.2694C24.9876 13.2709 24.9876 13.2723 24.9876 13.2738C24.9876 13.2752 24.9876 13.2766 24.9876 13.2781C24.9876 13.2795 24.9876 13.281 24.9876 13.2824C24.9876 13.2839 24.9876 13.2853 24.9876 13.2868C24.9876 13.2882 24.9876 13.2897 24.9876 13.2912C24.9876 13.2926 24.9876 13.2941 24.9876 13.2955C24.9876 13.297 24.9876 13.2984 24.9876 13.2999C24.9876 13.3014 24.9876 13.3028 24.9876 13.3043C24.9876 13.3057 24.9876 13.3072 24.9876 13.3087C24.9876 13.3101 24.9876 13.3116 24.9876 13.3131C24.9876 13.3145 24.9876 13.316 24.9876 13.3175C24.9876 13.3189 24.9876 13.3204 24.9876 13.3219C24.9876 13.3233 24.9876 13.3248 24.9876 13.3263C24.9876 13.3278 24.9876 13.3292 24.9876 13.3307C24.9876 13.3322 24.9876 13.3337 24.9876 13.3351C24.9876 13.3366 24.9876 13.3381 24.9876 13.3396C24.9876 13.3411 24.9876 13.3426 24.9876 13.344C24.9876 13.3455 24.9876 13.347 24.9876 13.3485C24.9876 13.35 24.9876 13.3515 24.9876 13.353C24.9876 13.3544 24.9876 13.3559 24.9876 13.3574C24.9876 13.3589 24.9876 13.3604 24.9876 13.3619C24.9876 13.3634 24.9876 13.3649 24.9876 13.3664C24.9876 13.3679 24.9876 13.3694 24.9876 13.3709C24.9876 13.3724 24.9876 13.3739 24.9876 13.3754C24.9876 13.3769 24.9876 13.3784 24.9876 13.3799C24.9876 13.3814 24.9876 13.3829 24.9876 13.3844C24.9876 13.3859 24.9876 13.3874 24.9876 13.389C24.9876 13.3905 24.9876 13.392 24.9876 13.3935C24.9876 13.395 24.9876 13.3965 24.9876 13.398C24.9876 13.3995 24.9876 13.4011 24.9876 13.4026C24.9876 13.4041 24.9876 13.4056 24.9876 13.4071C24.9876 13.4087 24.9876 13.4102 24.9876 13.4117C24.9876 13.4132 24.9876 13.4148 24.9876 13.4163C24.9876 13.4178 24.9876 13.4193 24.9876 13.4209C24.9876 13.4224 24.9876 13.4239 24.9876 13.4255C24.9876 13.427 24.9876 13.4285 24.9876 13.4301C24.9876 13.4316 24.9876 13.4332 24.9876 13.4347C24.9876 13.4362 24.9876 13.4378 24.9876 13.4393C24.9876 13.4409 24.9876 13.4424 24.9876 13.4439C24.9876 13.4455 24.9876 13.447 24.9876 13.4486C24.9876 13.4501 24.9876 13.4517 24.9876 13.4532C24.9876 13.4548 24.9876 13.4563 24.9876 13.4579C24.9876 13.4594 24.9876 13.461 24.9876 13.4626C24.9876 13.4641 24.9876 13.4657 24.9876 13.4672C24.9876 13.4688 24.9876 13.4703 24.9876 13.4719C24.9876 13.4735 24.9876 13.475 24.9876 13.4766C24.9876 13.4782 24.9876 13.4797 24.9876 13.4813C24.9876 13.4829 24.9876 13.4844 24.9876 13.486C24.9876 13.4876 24.9876 13.4892 24.9876 13.4907C24.9876 13.4923 24.9876 13.4939 24.9876 13.4955H26.5124C26.5124 13.4939 26.5124 13.4923 26.5124 13.4907C26.5124 13.4892 26.5124 13.4876 26.5124 13.486C26.5124 13.4844 26.5124 13.4829 26.5124 13.4813C26.5124 13.4797 26.5124 13.4782 26.5124 13.4766C26.5124 13.475 26.5124 13.4735 26.5124 13.4719C26.5124 13.4703 26.5124 13.4688 26.5124 13.4672C26.5124 13.4657 26.5124 13.4641 26.5124 13.4626C26.5124 13.461 26.5124 13.4594 26.5124 13.4579C26.5124 13.4563 26.5124 13.4548 26.5124 13.4532C26.5124 13.4517 26.5124 13.4501 26.5124 13.4486C26.5124 13.447 26.5124 13.4455 26.5124 13.4439C26.5124 13.4424 26.5124 13.4409 26.5124 13.4393C26.5124 13.4378 26.5124 13.4362 26.5124 13.4347C26.5124 13.4332 26.5124 13.4316 26.5124 13.4301C26.5124 13.4285 26.5124 13.427 26.5124 13.4255C26.5124 13.4239 26.5124 13.4224 26.5124 13.4209C26.5124 13.4193 26.5124 13.4178 26.5124 13.4163C26.5124 13.4148 26.5124 13.4132 26.5124 13.4117C26.5124 13.4102 26.5124 13.4087 26.5124 13.4071C26.5124 13.4056 26.5124 13.4041 26.5124 13.4026C26.5124 13.4011 26.5124 13.3995 26.5124 13.398C26.5124 13.3965 26.5124 13.395 26.5124 13.3935C26.5124 13.392 26.5124 13.3905 26.5124 13.389C26.5124 13.3874 26.5124 13.3859 26.5124 13.3844C26.5124 13.3829 26.5124 13.3814 26.5124 13.3799C26.5124 13.3784 26.5124 13.3769 26.5124 13.3754C26.5124 13.3739 26.5124 13.3724 26.5124 13.3709C26.5124 13.3694 26.5124 13.3679 26.5124 13.3664C26.5124 13.3649 26.5124 13.3634 26.5124 13.3619C26.5124 13.3604 26.5124 13.3589 26.5124 13.3574C26.5124 13.3559 26.5124 13.3544 26.5124 13.353C26.5124 13.3515 26.5124 13.35 26.5124 13.3485C26.5124 13.347 26.5124 13.3455 26.5124 13.344C26.5124 13.3426 26.5124 13.3411 26.5124 13.3396C26.5124 13.3381 26.5124 13.3366 26.5124 13.3351C26.5124 13.3337 26.5124 13.3322 26.5124 13.3307C26.5124 13.3292 26.5124 13.3278 26.5124 13.3263C26.5124 13.3248 26.5124 13.3233 26.5124 13.3219C26.5124 13.3204 26.5124 13.3189 26.5124 13.3175C26.5124 13.316 26.5124 13.3145 26.5124 13.3131C26.5124 13.3116 26.5124 13.3101 26.5124 13.3087C26.5124 13.3072 26.5124 13.3057 26.5124 13.3043C26.5124 13.3028 26.5124 13.3014 26.5124 13.2999C26.5124 13.2984 26.5124 13.297 26.5124 13.2955C26.5124 13.2941 26.5124 13.2926 26.5124 13.2912C26.5124 13.2897 26.5124 13.2882 26.5124 13.2868C26.5124 13.2853 26.5124 13.2839 26.5124 13.2824C26.5124 13.281 26.5124 13.2795 26.5124 13.2781C26.5124 13.2766 26.5124 13.2752 26.5124 13.2738C26.5124 13.2723 26.5124 13.2709 26.5124 13.2694C26.5124 13.268 26.5124 13.2665 26.5124 13.2651C26.5124 13.2637 26.5124 13.2622 26.5124 13.2608C26.5124 13.2593 26.5124 13.2579 26.5124 13.2565C26.5124 13.255 26.5124 13.2536 26.5124 13.2522C26.5124 13.2507 26.5124 13.2493 26.5124 13.2479C26.5124 13.2464 26.5124 13.245 26.5124 13.2436C26.5124 13.2422 26.5124 13.2407 26.5124 13.2393C26.5124 13.2379 26.5124 13.2364 26.5124 13.235C26.5124 13.2336 26.5124 13.2322 26.5124 13.2307C26.5124 13.2293 26.5124 13.2279 26.5124 13.2265C26.5124 13.2251 26.5124 13.2236 26.5124 13.2222C26.5124 13.2208 26.5124 13.2194 26.5124 13.218C26.5124 13.2166 26.5124 13.2151 26.5124 13.2137C26.5124 13.2123 26.5124 13.2109 26.5124 13.2095C26.5124 13.2081 26.5124 13.2067 26.5124 13.2053C26.5124 13.2038 26.5124 13.2024 26.5124 13.201C26.5124 13.1996 26.5124 13.1982 26.5124 13.1968C26.5124 13.1954 26.5124 13.194 26.5124 13.1926C26.5124 13.1912 26.5124 13.1898 26.5124 13.1884C26.5124 13.187 26.5124 13.1856 26.5124 13.1842C26.5124 13.1828 26.5124 13.1814 26.5124 13.18C26.5124 13.1786 26.5124 13.1772 26.5124 13.1758C26.5124 13.1744 26.5124 13.173 26.5124 13.1716C26.5124 13.1702 26.5124 13.1688 26.5124 13.1674C26.5124 13.166 26.5124 13.1646 26.5124 13.1632C26.5124 13.1619 26.5124 13.1605 26.5124 13.1591C26.5124 13.1577 26.5124 13.1563 26.5124 13.1549C26.5124 13.1535 26.5124 13.1521 26.5124 13.1508C26.5124 13.1494 26.5124 13.148 26.5124 13.1466C26.5124 13.1452 26.5124 13.1438 26.5124 13.1424C26.5124 13.1411 26.5124 13.1397 26.5124 13.1383C26.5124 13.1369 26.5124 13.1355 26.5124 13.1342C26.5124 13.1328 26.5124 13.1314 26.5124 13.13C26.5124 13.1287 26.5124 13.1273 26.5124 13.1259C26.5124 13.1245 26.5124 13.1232 26.5124 13.1218C26.5124 13.1204 26.5124 13.119 26.5124 13.1177C26.5124 13.1163 26.5124 13.1149 26.5124 13.1136C26.5124 13.1122 26.5124 13.1108 26.5124 13.1095C26.5124 13.1081 26.5124 13.1067 26.5124 13.1054C26.5124 13.104 26.5124 13.1026 26.5124 13.1013C26.5124 13.0999 26.5124 13.0985 26.5124 13.0972C26.5124 13.0958 26.5124 13.0944 26.5124 13.0931C26.5124 13.0917 26.5124 13.0904 26.5124 13.089C26.5124 13.0876 26.5124 13.0863 26.5124 13.0849C26.5124 13.0836 26.5124 13.0822 26.5124 13.0808C26.5124 13.0795 26.5124 13.0781 26.5124 13.0768C26.5124 13.0754 26.5124 13.0741 26.5124 13.0727C26.5124 13.0714 26.5124 13.07 26.5124 13.0687C26.5124 13.0673 26.5124 13.066 26.5124 13.0646C26.5124 13.0632 26.5124 13.0619 26.5124 13.0605C26.5124 13.0592 26.5124 13.0579 26.5124 13.0565C26.5124 13.0552 26.5124 13.0538 26.5124 13.0525C26.5124 13.0511 26.5124 13.0498 26.5124 13.0484C26.5124 13.0471 26.5124 13.0457 26.5124 13.0444C26.5124 13.043 26.5124 13.0417 26.5124 13.0404C26.5124 13.039 26.5124 13.0377 26.5124 13.0363C26.5124 13.035 26.5124 13.0337 26.5124 13.0323C26.5124 13.031 26.5124 13.0296 26.5124 13.0283C26.5124 13.027 26.5124 13.0256 26.5124 13.0243C26.5124 13.0229 26.5124 13.0216 26.5124 13.0203C26.5124 13.0189 26.5124 13.0176 26.5124 13.0163C26.5124 13.0149 26.5124 13.0136 26.5124 13.0123C26.5124 13.0109 26.5124 13.0096 26.5124 13.0083C26.5124 13.0069 26.5124 13.0056 26.5124 13.0043C26.5124 13.0029 26.5124 13.0016 26.5124 13.0003C26.5124 12.9989 26.5124 12.9976 26.5124 12.9963C26.5124 12.995 26.5124 12.9936 26.5124 12.9923C26.5124 12.991 26.5124 12.9897 26.5124 12.9883C26.5124 12.987 26.5124 12.9857 26.5124 12.9843C26.5124 12.983 26.5124 12.9817 26.5124 12.9804C26.5124 12.979 26.5124 12.9777 26.5124 12.9764C26.5124 12.9751 26.5124 12.9738 26.5124 12.9724C26.5124 12.9711 26.5124 12.9698 26.5124 12.9685C26.5124 12.9672 26.5124 12.9658 26.5124 12.9645C26.5124 12.9632 26.5124 12.9619 26.5124 12.9606C26.5124 12.9592 26.5124 12.9579 26.5124 12.9566C26.5124 12.9553 26.5124 12.954 26.5124 12.9526C26.5124 12.9513 26.5124 12.95 26.5124 12.9487C26.5124 12.9474 26.5124 12.9461 26.5124 12.9447C26.5124 12.9434 26.5124 12.9421 26.5124 12.9408C26.5124 12.9395 26.5124 12.9382 26.5124 12.9369C26.5124 12.9356 26.5124 12.9342 26.5124 12.9329C26.5124 12.9316 26.5124 12.9303 26.5124 12.929C26.5124 12.9277 26.5124 12.9264 26.5124 12.9251C26.5124 12.9237 26.5124 12.9224 26.5124 12.9211C26.5124 12.9198 26.5124 12.9185 26.5124 12.9172C26.5124 12.9159 26.5124 12.9146 26.5124 12.9133C26.5124 12.912 26.5124 12.9107 26.5124 12.9094C26.5124 12.908 26.5124 12.9067 26.5124 12.9054C26.5124 12.9041 26.5124 12.9028 26.5124 12.9015C26.5124 12.9002 26.5124 12.8989 26.5124 12.8976C26.5124 12.8963 26.5124 12.895 26.5124 12.8937C26.5124 12.8924 26.5124 12.8911 26.5124 12.8898C26.5124 12.8885 26.5124 12.8872 26.5124 12.8859C26.5124 12.8846 26.5124 12.8833 26.5124 12.882C26.5124 12.8807 26.5124 12.8794 26.5124 12.8781C26.5124 12.8767 26.5124 12.8754 26.5124 12.8741C26.5124 12.8728 26.5124 12.8715 26.5124 12.8702C26.5124 12.8689 26.5124 12.8676 26.5124 12.8663C26.5124 12.865 26.5124 12.8637 26.5124 12.8624C26.5124 12.8612 26.5124 12.8599 26.5124 12.8586C26.5124 12.8573 26.5124 12.856 26.5124 12.8547C26.5124 12.8534 26.5124 12.8521 26.5124 12.8508C26.5124 12.8495 26.5124 12.8482 26.5124 12.8469C26.5124 12.8456 26.5124 12.8443 26.5124 12.843C26.5124 12.8417 26.5124 12.8404 26.5124 12.8391C26.5124 12.8378 26.5124 12.8365 26.5124 12.8352C26.5124 12.8339 26.5124 12.8326 26.5124 12.8313C26.5124 12.83 26.5124 12.8287 26.5124 12.8274C26.5124 12.8261 26.5124 12.8249 26.5124 12.8236C26.5124 12.8223 26.5124 12.821 26.5124 12.8197C26.5124 12.8184 26.5124 12.8171 26.5124 12.8158C26.5124 12.8145 26.5124 12.8132 26.5124 12.8119C26.5124 12.8106 26.5124 12.8093 26.5124 12.808C26.5124 12.8067 26.5124 12.8055 26.5124 12.8042C26.5124 12.8029 26.5124 12.8016 26.5124 12.8003C26.5124 12.799 26.5124 12.7977 26.5124 12.7964C26.5124 12.7951 26.5124 12.7938 26.5124 12.7925C26.5124 12.7912 26.5124 12.79 26.5124 12.7887C26.5124 12.7874 26.5124 12.7861 26.5124 12.7848C26.5124 12.7835 26.5124 12.7822 26.5124 12.7809C26.5124 12.7796 26.5124 12.7783 26.5124 12.7771C26.5124 12.7758 26.5124 12.7745 26.5124 12.7732C26.5124 12.7719 26.5124 12.7706 26.5124 12.7693C26.5124 12.768 26.5124 12.7667 26.5124 12.7654C26.5124 12.7642 26.5124 12.7629 26.5124 12.7616C26.5124 12.7603 26.5124 12.759 26.5124 12.7577C26.5124 12.7564 26.5124 12.7551 26.5124 12.7538C26.5124 12.7525 26.5124 12.7513 26.5124 12.75C26.5124 12.7487 26.5124 12.7474 26.5124 12.7461C26.5124 12.7448 26.5124 12.7435 26.5124 12.7422C26.5124 12.7409 26.5124 12.7397 26.5124 12.7384C26.5124 12.7371 26.5124 12.7358 26.5124 12.7345C26.5124 12.7332 26.5124 12.7319 26.5124 12.7306C26.5124 12.7293 26.5124 12.7281 26.5124 12.7268C26.5124 12.7255 26.5124 12.7242 26.5124 12.7229C26.5124 12.7216 26.5124 12.7203 26.5124 12.719C26.5124 12.7177 26.5124 12.7165 26.5124 12.7152C26.5124 12.7139 26.5124 12.7126 26.5124 12.7113C26.5124 12.71 26.5124 12.7087 26.5124 12.7074C26.5124 12.7061 26.5124 12.7049 26.5124 12.7036C26.5124 12.7023 26.5124 12.701 26.5124 12.6997C26.5124 12.6984 26.5124 12.6971 26.5124 12.6958C26.5124 12.6945 26.5124 12.6933 26.5124 12.692C26.5124 12.6907 26.5124 12.6894 26.5124 12.6881C26.5124 12.6868 26.5124 12.6855 26.5124 12.6842C26.5124 12.6829 26.5124 12.6816 26.5124 12.6804C26.5124 12.6791 26.5124 12.6778 26.5124 12.6765C26.5124 12.6752 26.5124 12.6739 26.5124 12.6726C26.5124 12.6713 26.5124 12.67 26.5124 12.6687C26.5124 12.6674 26.5124 12.6662 26.5124 12.6649C26.5124 12.6636 26.5124 12.6623 26.5124 12.661C26.5124 12.6597 26.5124 12.6584 26.5124 12.6571C26.5124 12.6558 26.5124 12.6545 26.5124 12.6532C26.5124 12.6519 26.5124 12.6507 26.5124 12.6494C26.5124 12.6481 26.5124 12.6468 26.5124 12.6455C26.5124 12.6442 26.5124 12.6429 26.5124 12.6416C26.5124 12.6403 26.5124 12.639 26.5124 12.6377C26.5124 12.6364 26.5124 12.6351 26.5124 12.6338C26.5124 12.6325 26.5124 12.6313 26.5124 12.63C26.5124 12.6287 26.5124 12.6274 26.5124 12.6261C26.5124 12.6248 26.5124 12.6235 26.5124 12.6222C26.5124 12.6209 26.5124 12.6196 26.5124 12.6183C26.5124 12.617 26.5124 12.6157 26.5124 12.6144C26.5124 12.6131 26.5124 12.6118 26.5124 12.6105C26.5124 12.6092 26.5124 12.6079 26.5124 12.6066C26.5124 12.6053 26.5124 12.604 26.5124 12.6027C26.5124 12.6014 26.5124 12.6001 26.5124 12.5988C26.5124 12.5975 26.5124 12.5962 26.5124 12.5949C26.5124 12.5936 26.5124 12.5923 26.5124 12.591C26.5124 12.5897 26.5124 12.5884 26.5124 12.5871C26.5124 12.5858 26.5124 12.5845 26.5124 12.5832C26.5124 12.5819 26.5124 12.5806 26.5124 12.5793C26.5124 12.578 26.5124 12.5767 26.5124 12.5754C26.5124 12.5741 26.5124 12.5728 26.5124 12.5715C26.5124 12.5702 26.5124 12.5689 26.5124 12.5676C26.5124 12.5663 26.5124 12.565 26.5124 12.5637C26.5124 12.5624 26.5124 12.5611 26.5124 12.5598C26.5124 12.5585 26.5124 12.5572 26.5124 12.5559C26.5124 12.5546 26.5124 12.5533 26.5124 12.552C26.5124 12.5506 26.5124 12.5493 26.5124 12.548C26.5124 12.5467 26.5124 12.5454 26.5124 12.5441C26.5124 12.5428 26.5124 12.5415 26.5124 12.5402C26.5124 12.5389 26.5124 12.5376 26.5124 12.5363C26.5124 12.5349 26.5124 12.5336 26.5124 12.5323C26.5124 12.531 26.5124 12.5297 26.5124 12.5284C26.5124 12.5271 26.5124 12.5258 26.5124 12.5245C26.5124 12.5231 26.5124 12.5218 26.5124 12.5205C26.5124 12.5192 26.5124 12.5179 26.5124 12.5166C26.5124 12.5153 26.5124 12.5139 26.5124 12.5126C26.5124 12.5113 26.5124 12.51 26.5124 12.5087C26.5124 12.5074 26.5124 12.506 26.5124 12.5047C26.5124 12.5034 26.5124 12.5021 26.5124 12.5008C26.5124 12.4995 26.5124 12.4981 26.5124 12.4968C26.5124 12.4955 26.5124 12.4942 26.5124 12.4929C26.5124 12.4915 26.5124 12.4902 26.5124 12.4889C26.5124 12.4876 26.5124 12.4863 26.5124 12.4849C26.5124 12.4836 26.5124 12.4823 26.5124 12.481C26.5124 12.4796 26.5124 12.4783 26.5124 12.477C26.5124 12.4757 26.5124 12.4743 26.5124 12.473C26.5124 12.4717 26.5124 12.4704 26.5124 12.469C26.5124 12.4677 26.5124 12.4664 26.5124 12.4651C26.5124 12.4637 26.5124 12.4624 26.5124 12.4611C26.5124 12.4597 26.5124 12.4584 26.5124 12.4571C26.5124 12.4558 26.5124 12.4544 26.5124 12.4531C26.5124 12.4518 26.5124 12.4504 26.5124 12.4491C26.5124 12.4478 26.5124 12.4464 26.5124 12.4451C26.5124 12.4438 26.5124 12.4424 26.5124 12.4411C26.5124 12.4398 26.5124 12.4384 26.5124 12.4371C26.5124 12.4357 26.5124 12.4344 26.5124 12.4331C26.5124 12.4317 26.5124 12.4304 26.5124 12.4291C26.5124 12.4277 26.5124 12.4264 26.5124 12.425C26.5124 12.4237 26.5124 12.4224 26.5124 12.421C26.5124 12.4197 26.5124 12.4183 26.5124 12.417C26.5124 12.4156 26.5124 12.4143 26.5124 12.413C26.5124 12.4116 26.5124 12.4103 26.5124 12.4089C26.5124 12.4076 26.5124 12.4062 26.5124 12.4049C26.5124 12.4035 26.5124 12.4022 26.5124 12.4008C26.5124 12.3995 26.5124 12.3981 26.5124 12.3968C26.5124 12.3954 26.5124 12.3941 26.5124 12.3927C26.5124 12.3914 26.5124 12.39 26.5124 12.3887C26.5124 12.3873 26.5124 12.386 26.5124 12.3846C26.5124 12.3833 26.5124 12.3819 26.5124 12.3806C26.5124 12.3792 26.5124 12.3778 26.5124 12.3765C26.5124 12.3751 26.5124 12.3738 26.5124 12.3724C26.5124 12.371 26.5124 12.3697 26.5124 12.3683C26.5124 12.367 26.5124 12.3656 26.5124 12.3642C26.5124 12.3629 26.5124 12.3615 26.5124 12.3602C26.5124 12.3588 26.5124 12.3574 26.5124 12.3561C26.5124 12.3547 26.5124 12.3533 26.5124 12.352C26.5124 12.3506 26.5124 12.3492 26.5124 12.3479C26.5124 12.3465 26.5124 12.3451 26.5124 12.3438C26.5124 12.3424 26.5124 12.341 26.5124 12.3396C26.5124 12.3383 26.5124 12.3369 26.5124 12.3355C26.5124 12.3341 26.5124 12.3328 26.5124 12.3314C26.5124 12.33 26.5124 12.3286 26.5124 12.3273C26.5124 12.3259 26.5124 12.3245 26.5124 12.3231C26.5124 12.3218 26.5124 12.3204 26.5124 12.319C26.5124 12.3176 26.5124 12.3162 26.5124 12.3149C26.5124 12.3135 26.5124 12.3121 26.5124 12.3107C26.5124 12.3093 26.5124 12.3079 26.5124 12.3065C26.5124 12.3052 26.5124 12.3038 26.5124 12.3024C26.5124 12.301 26.5124 12.2996 26.5124 12.2982C26.5124 12.2968 26.5124 12.2954 26.5124 12.2941C26.5124 12.2927 26.5124 12.2913 26.5124 12.2899C26.5124 12.2885 26.5124 12.2871 26.5124 12.2857C26.5124 12.2843 26.5124 12.2829 26.5124 12.2815C26.5124 12.2801 26.5124 12.2787 26.5124 12.2773C26.5124 12.2759 26.5124 12.2745 26.5124 12.2731C26.5124 12.2717 26.5124 12.2703 26.5124 12.2689C26.5124 12.2675 26.5124 12.2661 26.5124 12.2647C26.5124 12.2633 26.5124 12.2619 26.5124 12.2605C26.5124 12.2591 26.5124 12.2577 26.5124 12.2563C26.5124 12.2548 26.5124 12.2534 26.5124 12.252C26.5124 12.2506 26.5124 12.2492 26.5124 12.2478C26.5124 12.2464 26.5124 12.245 26.5124 12.2435C26.5124 12.2421 26.5124 12.2407 26.5124 12.2393C26.5124 12.2379 26.5124 12.2365 26.5124 12.235C26.5124 12.2336 26.5124 12.2322 26.5124 12.2308C26.5124 12.2294 26.5124 12.2279 26.5124 12.2265C26.5124 12.2251 26.5124 12.2237 26.5124 12.2222C26.5124 12.2208 26.5124 12.2194 26.5124 12.218C26.5124 12.2165 26.5124 12.2151 26.5124 12.2137C26.5124 12.2122 26.5124 12.2108 26.5124 12.2094C26.5124 12.2079 26.5124 12.2065 26.5124 12.2051C26.5124 12.2036 26.5124 12.2022 26.5124 12.2008C26.5124 12.1993 26.5124 12.1979 26.5124 12.1965C26.5124 12.195 26.5124 12.1936 26.5124 12.1921C26.5124 12.1907 26.5124 12.1893 26.5124 12.1878C26.5124 12.1864 26.5124 12.1849 26.5124 12.1835C26.5124 12.182 26.5124 12.1806 26.5124 12.1791C26.5124 12.1777 26.5124 12.1762 26.5124 12.1748C26.5124 12.1733 26.5124 12.1719 26.5124 12.1704C26.5124 12.169 26.5124 12.1675 26.5124 12.1661C26.5124 12.1646 26.5124 12.1632 26.5124 12.1617C26.5124 12.1602 26.5124 12.1588 26.5124 12.1573C26.5124 12.1559 26.5124 12.1544 26.5124 12.1529C26.5124 12.1515 26.5124 12.15 26.5124 12.1486C26.5124 12.1471 26.5124 12.1456 26.5124 12.1442C26.5124 12.1427 26.5124 12.1412 26.5124 12.1397C26.5124 12.1383 26.5124 12.1368 26.5124 12.1353C26.5124 12.1339 26.5124 12.1324 26.5124 12.1309C26.5124 12.1294 26.5124 12.128 26.5124 12.1265C26.5124 12.125 26.5124 12.1235 26.5124 12.1221C26.5124 12.1206 26.5124 12.1191 26.5124 12.1176C26.5124 12.1161 26.5124 12.1146 26.5124 12.1132C26.5124 12.1117 26.5124 12.1102 26.5124 12.1087C26.5124 12.1072 26.5124 12.1057 26.5124 12.1042C26.5124 12.1027 26.5124 12.1013 26.5124 12.0998C26.5124 12.0983 26.5124 12.0968 26.5124 12.0953C26.5124 12.0938 26.5124 12.0923 26.5124 12.0908C26.5124 12.0893 26.5124 12.0878 26.5124 12.0863C26.5124 12.0848 26.5124 12.0833 26.5124 12.0818C26.5124 12.0803 26.5124 12.0788 26.5124 12.0773C26.5124 12.0758 26.5124 12.0743 26.5124 12.0727C26.5124 12.0712 26.5124 12.0697 26.5124 12.0682C26.5124 12.0667 26.5124 12.0652 26.5124 12.0637C26.5124 12.0622 26.5124 12.0606 26.5124 12.0591C26.5124 12.0576 26.5124 12.0561 26.5124 12.0546C26.5124 12.0531 26.5124 12.0515 26.5124 12.05C26.5124 12.0485 26.5124 12.047 26.5124 12.0454C26.5124 12.0439 26.5124 12.0424 26.5124 12.0409C26.5124 12.0393 26.5124 12.0378 26.5124 12.0363C26.5124 12.0347 26.5124 12.0332 26.5124 12.0317C26.5124 12.0301 26.5124 12.0286 26.5124 12.0271C26.5124 12.0255 26.5124 12.024 26.5124 12.0224C26.5124 12.0209 26.5124 12.0194 26.5124 12.0178C26.5124 12.0163 26.5124 12.0147 26.5124 12.0132C26.5124 12.0116 26.5124 12.0101 26.5124 12.0085C26.5124 12.007 26.5124 12.0054 26.5124 12.0039C26.5124 12.0023 26.5124 12.0008 26.5124 11.9992C26.5124 11.9977 26.5124 11.9961 26.5124 11.9946C26.5124 11.993 26.5124 11.9914 26.5124 11.9899C26.5124 11.9883 26.5124 11.9868 26.5124 11.9852C26.5124 11.9836 26.5124 11.9821 26.5124 11.9805C26.5124 11.9789 26.5124 11.9774 26.5124 11.9758C26.5124 11.9742 26.5124 11.9727 26.5124 11.9711C26.5124 11.9695 26.5124 11.9679 26.5124 11.9664C26.5124 11.9648 26.5124 11.9632 26.5124 11.9616C26.5124 11.96 26.5124 11.9585 26.5124 11.9569C26.5124 11.9553 26.5124 11.9537 26.5124 11.9521C26.5124 11.9505 26.5124 11.949 26.5124 11.9474C26.5124 11.9458 26.5124 11.9442 26.5124 11.9426C26.5124 11.941 26.5124 11.9394 26.5124 11.9378C26.5124 11.9362 26.5124 11.9346 26.5124 11.933C26.5124 11.9314 26.5124 11.9298 26.5124 11.9282C26.5124 11.9266 26.5124 11.925 26.5124 11.9234C26.5124 11.9218 26.5124 11.9202 26.5124 11.9186C26.5124 11.917 26.5124 11.9154 26.5124 11.9138C26.5124 11.9121 26.5124 11.9105 26.5124 11.9089C26.5124 11.9073 26.5124 11.9057 26.5124 11.9041C26.5124 11.9024 26.5124 11.9008 26.5124 11.8992C26.5124 11.8976 26.5124 11.896 26.5124 11.8943C26.5124 11.8927 26.5124 11.8911 26.5124 11.8895C26.5124 11.8878 26.5124 11.8862 26.5124 11.8846C26.5124 11.8829 26.5124 11.8813 26.5124 11.8797C26.5124 11.878 26.5124 11.8764 26.5124 11.8747C26.5124 11.8731 26.5124 11.8715 26.5124 11.8698C26.5124 11.8682 26.5124 11.8665 26.5124 11.8649C26.5124 11.8632 26.5124 11.8616 26.5124 11.86C26.5124 11.8583 26.5124 11.8566 26.5124 11.855C26.5124 11.8533 26.5124 11.8517 26.5124 11.85C26.5124 11.8484 26.5124 11.8467 26.5124 11.8451C26.5124 11.8434 26.5124 11.8417 26.5124 11.8401C26.5124 11.8384 26.5124 11.8367 26.5124 11.8351C26.5124 11.8334 26.5124 11.8317 26.5124 11.8301C26.5124 11.8284 26.5124 11.8267 26.5124 11.8251C26.5124 11.8234 26.5124 11.8217 26.5124 11.82C26.5124 11.8183 26.5124 11.8167 26.5124 11.815C26.5124 11.8133 26.5124 11.8116 26.5124 11.8099C26.5124 11.8082 26.5124 11.8066 26.5124 11.8049C26.5124 11.8032 26.5124 11.8015 26.5124 11.7998C26.5124 11.7981 26.5124 11.7964 26.5124 11.7947C26.5124 11.793 26.5124 11.7913 26.5124 11.7896C26.5124 11.7879 26.5124 11.7862 26.5124 11.7845C26.5124 11.7828 26.5124 11.7811 26.5124 11.7794C26.5124 11.7777 26.5124 11.776 26.5124 11.7743C26.5124 11.7726 26.5124 11.7708 26.5124 11.7691C26.5124 11.7674 26.5124 11.7657 26.5124 11.764C26.5124 11.7623 26.5124 11.7605 26.5124 11.7588C26.5124 11.7571 26.5124 11.7554 26.5124 11.7536C26.5124 11.7519 26.5124 11.7502 26.5124 11.7485C26.5124 11.7467 26.5124 11.745 26.5124 11.7433C26.5124 11.7415 26.5124 11.7398 26.5124 11.7381C26.5124 11.7363 26.5124 11.7346 26.5124 11.7328C26.5124 11.7311 26.5124 11.7293 26.5124 11.7276C26.5124 11.7259 26.5124 11.7241 26.5124 11.7224C26.5124 11.7206 26.5124 11.7188 26.5124 11.7171C26.5124 11.7153 26.5124 11.7136 26.5124 11.7118C26.5124 11.7101 26.5124 11.7083 26.5124 11.7065C26.5124 11.7048 26.5124 11.703 26.5124 11.7013C26.5124 11.6995 26.5124 11.6977 26.5124 11.6959C26.5124 11.6942 26.5124 11.6924 26.5124 11.6906C26.5124 11.6889 26.5124 11.6871 26.5124 11.6853C26.5124 11.6835 26.5124 11.6817 26.5124 11.68C26.5124 11.6782 26.5124 11.6764 26.5124 11.6746C26.5124 11.6728 26.5124 11.671 26.5124 11.6692C26.5124 11.6675 26.5124 11.6657 26.5124 11.6639C26.5124 11.6621 26.5124 11.6603 26.5124 11.6585C26.5124 11.6567 26.5124 11.6549 26.5124 11.6531C26.5124 11.6513 26.5124 11.6495 26.5124 11.6477C26.5124 11.6458 26.5124 11.644 26.5124 11.6422C26.5124 11.6404 26.5124 11.6386 26.5124 11.6368C26.5124 11.635 26.5124 11.6332 26.5124 11.6313C26.5124 11.6295 26.5124 11.6277 26.5124 11.6259C26.5124 11.624 26.5124 11.6222 26.5124 11.6204C26.5124 11.6186 26.5124 11.6167 26.5124 11.6149C26.5124 11.6131 26.5124 11.6112 26.5124 11.6094C26.5124 11.6075 26.5124 11.6057 26.5124 11.6039C26.5124 11.602 26.5124 11.6002 26.5124 11.5983C26.5124 11.5965 26.5124 11.5946 26.5124 11.5928C26.5124 11.5909 26.5124 11.5891 26.5124 11.5872C26.5124 11.5854 26.5124 11.5835 26.5124 11.5817C26.5124 11.5798 26.5124 11.5779 26.5124 11.5761C26.5124 11.5742 26.5124 11.5724 26.5124 11.5705C26.5124 11.5686 26.5124 11.5667 26.5124 11.5649C26.5124 11.563 26.5124 11.5611 26.5124 11.5593C26.5124 11.5574 26.5124 11.5555 26.5124 11.5536C26.5124 11.5517 26.5124 11.5498 26.5124 11.548C26.5124 11.5461 26.5124 11.5442 26.5124 11.5423C26.5124 11.5404 26.5124 11.5385 26.5124 11.5366C26.5124 11.5347 26.5124 11.5328 26.5124 11.5309C26.5124 11.529 26.5124 11.5271 26.5124 11.5252C26.5124 11.5233 26.5124 11.5214 26.5124 11.5195C26.5124 11.5176 26.5124 11.5157 26.5124 11.5138C26.5124 11.5119 26.5124 11.5099 26.5124 11.508C26.5124 11.5061 26.5124 11.5042 26.5124 11.5023C26.5124 11.5003 26.5124 11.4984 26.5124 11.4965C26.5124 11.4946 26.5124 11.4926 26.5124 11.4907C26.5124 11.4888 26.5124 11.4868 26.5124 11.4849C26.5124 11.483 26.5124 11.481 26.5124 11.4791C26.5124 11.4771 26.5124 11.4752 26.5124 11.4733C26.5124 11.4713 26.5124 11.4694 26.5124 11.4674C26.5124 11.4655 26.5124 11.4635 26.5124 11.4616C26.5124 11.4596 26.5124 11.4576 26.5124 11.4557C26.5124 11.4537 26.5124 11.4518 26.5124 11.4498C26.5124 11.4478 26.5124 11.4459 26.5124 11.4439C26.5124 11.4419 26.5124 11.4399 26.5124 11.438C26.5124 11.436 26.5124 11.434 26.5124 11.432C26.5124 11.4301 26.5124 11.4281 26.5124 11.4261C26.5124 11.4241 26.5124 11.4221 26.5124 11.4201C26.5124 11.4181 26.5124 11.4162 26.5124 11.4142C26.5124 11.4122 26.5124 11.4102 26.5124 11.4082C26.5124 11.4062 26.5124 11.4042 26.5124 11.4022C26.5124 11.4002 26.5124 11.3982 26.5124 11.3961C26.5124 11.3941 26.5124 11.3921 26.5124 11.3901C26.5124 11.3881 26.5124 11.3861 26.5124 11.3841C26.5124 11.382 26.5124 11.38 26.5124 11.378C26.5124 11.376 26.5124 11.3739 26.5124 11.3719C26.5124 11.3699 26.5124 11.3679 26.5124 11.3658C26.5124 11.3638 26.5124 11.3618 26.5124 11.3597C26.5124 11.3577 26.5124 11.3556 26.5124 11.3536C26.5124 11.3515 26.5124 11.3495 26.5124 11.3475C26.5124 11.3454 26.5124 11.3434 26.5124 11.3413C26.5124 11.3392 26.5124 11.3372 26.5124 11.3351C26.5124 11.3331 26.5124 11.331 26.5124 11.3289C26.5124 11.3269 26.5124 11.3248 26.5124 11.3227C26.5124 11.3207 26.5124 11.3186 26.5124 11.3165C26.5124 11.3145 26.5124 11.3124 26.5124 11.3103C26.5124 11.3082 26.5124 11.3061 26.5124 11.304C26.5124 11.302 26.5124 11.2999 26.5124 11.2978C26.5124 11.2957 26.5124 11.2936 26.5124 11.2915C26.5124 11.2894 26.5124 11.2873 26.5124 11.2852C26.5124 11.2831 26.5124 11.281 26.5124 11.2789C26.5124 11.2768 26.5124 11.2747 26.5124 11.2726C26.5124 11.2705 26.5124 11.2684 26.5124 11.2662C26.5124 11.2641 26.5124 11.262 26.5124 11.2599C26.5124 11.2578 26.5124 11.2556 26.5124 11.2535C26.5124 11.2514 26.5124 11.2492 26.5124 11.2471C26.5124 11.245 26.5124 11.2428 26.5124 11.2407C26.5124 11.2386 26.5124 11.2364 26.5124 11.2343C26.5124 11.2321 26.5124 11.23 26.5124 11.2278C26.5124 11.2257 26.5124 11.2235 26.5124 11.2214C26.5124 11.2192 26.5124 11.2171 26.5124 11.2149C26.5124 11.2128 26.5124 11.2106 26.5124 11.2084C26.5124 11.2063 26.5124 11.2041 26.5124 11.2019C26.5124 11.1998 26.5124 11.1976 26.5124 11.1954C26.5124 11.1932 26.5124 11.1911 26.5124 11.1889C26.5124 11.1867 26.5124 11.1845 26.5124 11.1823C26.5124 11.1801 26.5124 11.1779 26.5124 11.1758C26.5124 11.1736 26.5124 11.1714 26.5124 11.1692C26.5124 11.167 26.5124 11.1648 26.5124 11.1626H24.9876ZM24.9876 13.4958C24.9886 16.0692 24.1062 18.5651 22.488 20.5662L23.6736 21.5249C25.5114 19.2524 26.5135 16.4179 26.5124 13.4952L24.9876 13.4958ZM22.488 20.5662C20.8698 22.5672 18.6138 23.9523 16.0971 24.4898L16.4155 25.9809C19.2737 25.3705 21.8358 23.7975 23.6736 21.5249L22.488 20.5662ZM16.0971 24.4898C13.5803 25.0273 10.9554 24.6847 8.66089 23.5192L7.97037 24.8787C10.5762 26.2022 13.5573 26.5913 16.4155 25.9809L16.0971 24.4898ZM8.66089 23.5192C6.36642 22.3538 4.54148 20.4361 3.49108 18.0867L2.0991 18.7091C3.29202 21.3772 5.36458 23.5551 7.97037 24.8787L8.66089 23.5192ZM3.49108 18.0867C2.44068 15.7374 2.22847 13.0987 2.88993 10.6116L1.41638 10.2197C0.665175 13.0442 0.906173 16.041 2.0991 18.7091L3.49108 18.0867ZM2.88993 10.6116C3.55138 8.1246 5.04642 5.93995 7.12516 4.42282L6.22626 3.19118C3.86547 4.91416 2.16758 7.39524 1.41638 10.2197L2.88993 10.6116ZM7.12516 4.42282C9.20389 2.90568 11.7404 2.14799 14.3107 2.27639L14.3867 0.753514C11.4677 0.607695 8.58706 1.46819 6.22626 3.19118L7.12516 4.42282ZM14.3107 2.27639C16.8809 2.40479 19.3293 3.41149 21.2465 5.12824L22.2636 3.99232C20.0863 2.04263 17.3058 0.899334 14.3867 0.753514L14.3107 2.27639ZM21.2054 4.03195L18.0542 7.31022L19.1535 8.36688L22.3047 5.08861L21.2054 4.03195Z" fill="#E8E8E8"/>
</svg>
