<svg width="27" height="26" viewBox="0 0 27 26" fill="none" xmlns="http://www.w3.org/2000/svg">
<path d="M6.89165 19.5789C7.23184 19.9575 9.78877 21.2798 9.78877 21.2798C10.5663 21.6109 11.3896 21.8218 12.2305 21.9053C18.4801 22.454 23.5446 18.0645 25.4541 13.1866C25.4703 13.1513 25.4787 13.1129 25.4787 13.0741C25.4787 13.0352 25.4703 12.9969 25.4541 12.9616C24.9328 11.9739 20.8231 4.44033 13.5034 4.25926C6.18383 4.07819 1.98081 11.8148 1.38822 12.9342C1.36515 12.9752 1.35303 13.0215 1.35303 13.0686C1.35303 13.1157 1.36515 13.162 1.38822 13.203C2.58477 15.1341 4.01893 16.9075 5.65708 18.4815M25.476 1L1.47601 25M17.1248 13C17.1248 15.094 15.4273 16.7915 13.3333 16.7915C11.2394 16.7915 9.54185 15.094 9.54185 13C9.54185 10.906 11.2394 9.2085 13.3333 9.2085C15.4273 9.2085 17.1248 10.906 17.1248 13Z" stroke="#8D8C8C" stroke-width="2"/>
</svg>
