<svg width="30" height="20" viewBox="0 0 30 20" fill="none" xmlns="http://www.w3.org/2000/svg">
<path d="M28.7243 10.0784C28.741 10.0431 28.7496 10.0051 28.7496 9.96677C28.7496 9.92841 28.741 9.89044 28.7243 9.85514C28.1289 8.84493 23.453 1.18736 15.2112 1.00318C6.96949 0.818998 2.18816 8.68865 1.5184 9.82724C1.49227 9.86796 1.47852 9.91416 1.47852 9.96119C1.47852 10.0082 1.49227 10.0544 1.5184 10.0951C2.25017 11.1723 7.36639 18.4225 13.7725 18.9527C20.836 19.5108 26.5661 15.0458 28.7243 10.0784Z" stroke="#8D8C8C" stroke-width="2"/>
<path d="M15.0252 13.7453C17.3919 13.7453 19.3104 12.0186 19.3104 9.88863C19.3104 7.75864 17.3919 6.03194 15.0252 6.03194C12.6585 6.03194 10.74 7.75864 10.74 9.88863C10.74 12.0186 12.6585 13.7453 15.0252 13.7453Z" stroke="#8D8C8C" stroke-width="2"/>
</svg>
